<?xml version="1.0" standalone="no"?>
<!DOCTYPE svg PUBLIC "-//W3C//DTD SVG 20010904//EN"
 "http://www.w3.org/TR/2001/REC-SVG-20010904/DTD/svg10.dtd">
<svg version="1.0" xmlns="http://www.w3.org/2000/svg"
 width="518.000000pt" height="516.000000pt" viewBox="0 0 518.000000 516.000000"
 preserveAspectRatio="xMidYMid meet">

<g transform="translate(0.000000,516.000000) scale(0.100000,-0.100000)"
fill="#000000" stroke="none">
<path d="M0 2580 l0 -2580 2590 0 2590 0 0 2580 0 2580 -2590 0 -2590 0 0
-2580z m2858 2469 c545 -59 1081 -317 1473 -709 205 -206 349 -409 484 -685
180 -366 254 -678 255 -1062 0 -404 -76 -726 -260 -1093 -241 -482 -697 -910
-1191 -1119 -293 -124 -541 -185 -865 -212 -112 -9 -136 -9 -168 5 -71 30 -85
129 -26 180 31 26 30 26 255 47 123 11 274 35 283 44 3 2 -4 8 -14 12 -86 31
-277 125 -377 184 -604 359 -990 886 -1083 1477 -20 129 -15 380 10 482 42
169 126 311 261 438 86 82 94 92 74 92 -20 0 -196 87 -232 114 l-34 26 -65
-68 c-150 -159 -307 -433 -383 -667 -67 -206 -86 -324 -92 -565 -7 -287 17
-448 104 -714 58 -172 206 -438 332 -594 28 -34 51 -65 51 -68 0 -10 -191 95
-280 154 -138 92 -205 167 -273 305 -155 316 -213 667 -176 1067 42 460 244
930 537 1249 l68 75 -58 80 c-79 110 -147 251 -213 439 l-55 159 607 -5 c636
-5 733 -11 1036 -62 131 -23 381 -89 495 -131 272 -102 394 -196 495 -381 54
-98 41 -87 422 -369 230 -170 212 -148 182 -222 -13 -34 -42 -90 -63 -126
l-39 -65 -5 42 c-6 47 -3 44 -211 187 -149 101 -401 290 -447 334 -19 17 -51
68 -73 113 -64 134 -152 196 -393 275 -133 43 -398 99 -581 122 -229 29 -362
37 -717 43 -303 5 -358 4 -358 -8 0 -23 46 -114 96 -192 59 -91 181 -211 264
-260 109 -63 206 -89 340 -91 95 -1 128 3 190 22 41 13 81 29 88 34 29 24 7
-9 -56 -85 -38 -45 -84 -104 -103 -131 -19 -26 -44 -52 -57 -57 -29 -11 -212
-11 -269 0 -47 9 -41 17 -79 -94 -69 -199 -98 -389 -98 -640 0 -227 13 -311
71 -479 185 -534 632 -969 1268 -1234 177 -74 325 -113 313 -83 -1 5 -50 44
-108 86 -523 386 -758 983 -558 1418 17 37 37 72 44 78 24 20 16 27 -43 39
-88 18 -164 40 -208 62 -51 26 -125 72 -125 78 0 3 53 5 118 6 64 1 184 11
267 23 176 25 377 28 479 6 101 -21 188 -66 257 -131 l60 -58 47 23 c26 13 84
45 129 73 84 51 130 67 196 68 33 0 37 -3 37 -25 0 -70 -83 -222 -150 -275
-86 -68 -237 -120 -349 -120 -48 0 -50 1 -61 35 -17 51 -97 134 -155 161 -68
32 -164 33 -220 1 -52 -29 -101 -95 -122 -165 -14 -44 -18 -91 -17 -207 0
-136 3 -158 28 -235 97 -294 308 -552 620 -755 l87 -57 82 54 c449 300 763
727 910 1243 148 514 95 1047 -153 1550 -340 691 -959 1147 -1711 1261 -159
24 -473 25 -629 0 -539 -83 -1017 -345 -1358 -743 -308 -359 -481 -730 -548
-1173 -24 -158 -24 -473 -1 -630 33 -218 104 -446 190 -615 58 -112 64 -157
31 -202 -41 -55 -119 -60 -172 -11 -46 43 -168 325 -221 513 -61 219 -74 323
-75 610 -1 279 8 369 61 584 170 702 662 1329 1292 1645 278 140 543 219 866
259 69 9 433 6 523 -4z m467 -1584 c69 -24 98 -54 131 -138 16 -39 30 -74 32
-77 1 -3 -45 -2 -102 1 -124 7 -150 19 -216 104 -52 67 -86 87 -180 106 l-65
13 40 7 c75 13 306 3 360 -16z m780 -600 c19 -6 102 -129 131 -194 23 -50 -22
-138 -95 -187 -53 -35 -164 -64 -245 -64 l-68 0 41 42 c22 24 41 46 41 49 0 3
-55 9 -122 13 -194 11 -458 50 -458 67 0 10 205 47 329 59 57 5 151 10 210 10
107 0 108 0 120 27 7 14 8 29 4 33 -16 15 -217 41 -385 51 -95 5 -177 11 -182
13 -19 5 157 67 231 81 78 15 401 15 448 0z"/>
</g>
</svg>
