<?xml version="1.0" standalone="no"?>
<!DOCTYPE svg PUBLIC "-//W3C//DTD SVG 20010904//EN"
 "http://www.w3.org/TR/2001/REC-SVG-20010904/DTD/svg10.dtd">
<svg version="1.0" xmlns="http://www.w3.org/2000/svg"
 width="1600.000000pt" height="1064.000000pt" viewBox="0 0 1600.000000 1064.000000"
 preserveAspectRatio="xMidYMid meet" style="background-color:rgba(0,0,0,0) ;">

<g transform="translate(0.000000,1064.000000) scale(0.100000,-0.100000)"
fill="#000000" stroke="none">
<path d="M13528 8636 c-32 -7 -61 -15 -64 -19 -12 -11 -43 -137 -35 -141 11
-7 282 88 283 99 1 11 -101 75 -117 74 -5 0 -36 -6 -67 -13z"/>
<path d="M13312 8579 c-79 -22 -126 -61 -142 -116 -21 -71 -14 -76 82 -46 46
13 86 28 89 31 9 9 43 141 38 146 -2 2 -32 -5 -67 -15z"/>
<path d="M13958 8593 c7 -3 16 -2 19 1 4 3 -2 6 -13 5 -11 0 -14 -3 -6 -6z"/>
<path d="M12290 8165 c-10 -12 -10 -19 -2 -27 13 -13 42 6 42 28 0 19 -24 18
-40 -1z"/>
<path d="M11762 7928 c-17 -17 -16 -108 1 -108 26 0 47 36 47 78 0 34 -4 42
-18 42 -10 0 -23 -5 -30 -12z"/>
<path d="M14430 7872 c0 -5 7 -13 16 -16 10 -4 14 -1 12 6 -5 15 -28 23 -28
10z"/>
<path d="M14577 7846 l-39 -34 -34 20 c-33 19 -46 14 -23 -9 15 -15 -32 -29
-58 -18 -31 13 -55 16 -67 6 -6 -5 -25 -12 -43 -15 -17 -4 -37 -13 -43 -21 -6
-7 -48 -28 -93 -46 -45 -17 -86 -36 -91 -41 -6 -4 -20 -8 -32 -8 -13 0 -25 -4
-28 -9 -8 -12 -136 -72 -158 -74 -10 -1 -18 -5 -18 -9 0 -4 -20 -16 -45 -27
-25 -11 -45 -25 -45 -30 0 -6 -20 -11 -46 -11 -31 0 -68 -10 -111 -31 -35 -17
-71 -28 -80 -25 -9 4 -36 -3 -60 -15 -27 -13 -56 -20 -78 -17 -28 3 -35 0 -38
-17 -3 -19 -4 -18 -14 5 l-11 25 -11 -29 c-6 -16 -14 -26 -17 -23 -4 3 -16 -3
-28 -15 -29 -27 -59 -38 -68 -24 -6 8 -8 7 -8 -1 0 -14 -30 -19 -30 -5 0 4
-12 15 -26 26 -26 18 -26 18 -15 -2 17 -31 4 -50 -39 -57 -21 -4 -46 -15 -56
-26 -9 -10 -23 -19 -30 -19 -7 0 -19 -6 -26 -13 -7 -7 -25 -21 -40 -31 -16
-10 -28 -25 -28 -33 0 -8 -5 -11 -12 -7 -7 4 -8 3 -4 -4 4 -6 13 -9 21 -5 19
7 19 -1 1 -16 -12 -10 -17 -8 -26 10 -10 17 -9 24 1 31 9 6 -1 7 -31 3 -59 -8
-63 -8 -79 -4 -15 4 -33 -44 -24 -67 3 -8 16 -14 29 -14 53 0 16 -28 -65 -50
-23 -6 -41 -15 -41 -20 0 -6 -11 -10 -24 -10 -14 0 -28 -5 -32 -11 -3 -6 -26
-19 -50 -29 -24 -11 -44 -24 -44 -30 0 -7 -14 -10 -32 -8 -24 2 -34 9 -37 23
-3 19 -18 35 -34 35 -4 0 -3 -9 3 -19 14 -28 12 -51 -4 -51 -8 0 -16 -3 -18
-7 -1 -5 -20 -16 -40 -25 -35 -16 -38 -16 -48 0 -10 15 -11 15 -5 -2 7 -25
-28 -58 -68 -62 -16 -2 -36 -9 -43 -15 -8 -6 -20 -9 -27 -6 -7 3 -19 -4 -25
-14 -7 -10 -16 -19 -21 -19 -6 0 -33 -14 -61 -32 l-52 -32 -30 37 c-39 48 -56
48 -23 0 28 -42 32 -58 11 -50 -8 3 -16 2 -18 -3 -2 -5 -32 -20 -68 -33 -36
-14 -64 -30 -62 -36 1 -6 -11 -11 -28 -11 -16 0 -30 -4 -30 -9 0 -12 -57 -41
-81 -41 -10 0 -24 -7 -32 -14 -8 -8 -27 -17 -42 -19 -14 -2 -30 -7 -33 -13 -4
-5 -17 -15 -30 -22 -30 -17 -60 2 -41 24 14 17 -3 19 -32 4 -20 -11 -26 -30
-8 -30 5 0 7 6 3 13 -5 8 -2 8 9 -2 19 -15 23 -26 5 -15 -7 5 -9 2 -5 -8 8
-22 -3 -30 -21 -15 -13 9 -14 9 -8 0 5 -9 0 -13 -16 -13 -13 0 -31 -7 -41 -14
-16 -12 -24 -12 -53 0 -27 12 -34 12 -34 1 0 -20 21 -36 37 -30 13 5 13 3 2
-16 -8 -12 -20 -19 -27 -16 -7 2 -36 -8 -65 -24 -29 -16 -67 -32 -85 -36 -18
-4 -36 -13 -39 -21 -3 -8 -14 -14 -24 -14 -10 0 -19 -4 -19 -10 0 -5 -9 -10
-20 -10 -11 0 -20 -4 -20 -10 0 -5 -6 -10 -14 -10 -8 0 -21 -6 -28 -12 -18
-18 -93 -58 -108 -58 -7 0 -30 -14 -51 -31 -24 -19 -39 -26 -39 -17 0 7 -8 4
-18 -9 -9 -12 -32 -28 -49 -34 -19 -6 -33 -18 -33 -27 0 -13 -2 -14 -12 -3 -8
9 -9 15 -3 17 13 5 7 155 -6 168 -7 8 -15 -83 -10 -116 0 -4 -4 -19 -9 -34
-10 -25 -11 -26 -35 -10 -21 14 -33 15 -64 6 -21 -6 -42 -17 -45 -25 -3 -8
-12 -15 -21 -15 -8 0 -15 -4 -15 -8 0 -4 -17 -14 -37 -21 -55 -19 -305 -141
-325 -159 -10 -8 -24 -12 -33 -9 -8 4 -14 3 -14 -1 4 -22 -4 -32 -23 -32 -13
0 -30 -4 -38 -10 -9 -6 -20 -5 -29 3 -12 10 -14 9 -8 -5 3 -10 2 -20 -3 -23
-6 -4 -10 -1 -10 4 0 6 -9 11 -20 11 -11 0 -20 -4 -20 -9 0 -5 -8 -11 -17 -15
-10 -3 -31 -15 -48 -26 -16 -11 -38 -23 -47 -26 -10 -4 -18 -12 -18 -20 0 -7
-6 -11 -14 -8 -8 3 -34 -5 -58 -17 -23 -13 -46 -22 -50 -21 -5 1 -8 -2 -8 -8
0 -5 -7 -6 -17 -3 -12 5 -14 3 -8 -7 6 -10 3 -12 -13 -8 -14 4 -22 2 -22 -7 0
-15 -50 -36 -95 -41 -16 -2 -58 -14 -93 -28 -34 -13 -60 -21 -57 -15 3 5 -1 6
-9 3 -9 -3 -16 -11 -16 -16 0 -6 -7 -8 -15 -5 -15 6 -68 -16 -60 -25 3 -2 -2
-5 -10 -5 -8 0 -15 4 -15 9 0 10 -53 7 -61 -5 -3 -4 -16 -9 -27 -10 -12 -1
-22 -4 -22 -7 0 -4 -36 -13 -80 -20 -53 -9 -80 -18 -80 -27 0 -16 -17 -17 -22
-1 -4 12 25 48 40 48 4 0 16 8 27 16 20 16 19 16 -4 9 -18 -6 -22 -4 -15 6 5
8 9 18 9 23 0 5 6 11 13 14 6 2 12 -1 12 -8 0 -6 5 -8 10 -5 6 4 8 11 5 16 -4
5 5 14 19 20 14 7 23 16 20 20 -3 5 0 9 6 9 27 0 261 168 340 244 53 51 60 55
74 40 15 -14 16 -14 16 5 0 12 -4 21 -10 21 -5 0 -10 5 -10 11 0 5 4 8 9 5 5
-3 16 5 25 19 9 14 25 25 36 25 13 0 18 5 14 15 -4 9 0 15 10 15 9 0 16 4 16
10 0 5 7 7 15 4 9 -4 15 0 15 9 0 8 6 20 14 26 7 6 12 25 11 41 -1 16 4 35 11
41 21 18 7 29 -38 29 -31 0 -49 -7 -75 -30 -22 -20 -44 -30 -66 -30 -44 0
-141 48 -207 102 -30 24 -79 57 -108 73 -30 16 -60 41 -68 57 l-15 29 -67 -37
c-37 -21 -68 -38 -70 -40 -5 -3 47 -104 54 -104 2 0 33 18 67 39 l61 40 24
-42 c13 -23 29 -49 37 -57 7 -8 16 -26 19 -40 4 -14 4 -20 -1 -14 -6 9 -22 5
-57 -12 l-50 -24 -25 23 c-14 12 -29 27 -33 32 -5 6 -8 6 -8 -2 0 -6 5 -15 10
-18 6 -3 10 -11 10 -16 0 -6 -4 -7 -10 -4 -5 3 -10 1 -10 -6 0 -6 -8 -9 -20
-6 -11 3 -23 1 -26 -5 -4 -5 -13 -3 -23 7 -17 14 -23 13 -77 -20 -32 -19 -64
-45 -70 -58 -7 -12 -15 -21 -18 -19 -12 5 -86 -43 -86 -55 0 -7 -5 -13 -11
-13 -5 0 -7 6 -3 13 4 6 -4 1 -19 -13 -14 -14 -34 -25 -44 -26 -57 -3 -113
-33 -65 -35 10 0 12 -3 5 -6 -7 -2 -28 5 -47 16 l-34 21 -6 -25 c-4 -14 -11
-23 -15 -20 -15 9 -39 -5 -44 -26 -4 -14 -12 -19 -26 -17 -11 2 -26 -5 -33
-14 -7 -9 -26 -19 -43 -22 -66 -12 -90 -20 -103 -33 -7 -7 -20 -13 -27 -13 -9
0 -12 -6 -9 -15 6 -13 -6 -20 -28 -16 -5 0 -8 -6 -8 -14 0 -9 -6 -15 -12 -14
-31 4 -49 -2 -65 -21 -11 -12 -30 -20 -50 -20 -21 0 -33 -5 -33 -13 0 -9 -12
-14 -32 -15 -17 0 -34 -6 -38 -13 -6 -8 -9 -8 -13 2 -4 11 -11 11 -37 -3 -42
-24 -53 -23 -100 7 -31 19 -48 43 -79 107 -80 166 -76 293 11 360 18 14 42 34
53 44 11 11 76 64 145 118 166 131 156 121 137 140 -17 17 -37 21 -37 8 0 -4
-14 -9 -30 -10 -17 -1 -51 -11 -78 -21 -26 -10 -50 -19 -55 -20 -4 0 -21 -8
-37 -16 -18 -9 -30 -11 -30 -5 0 6 11 15 25 20 14 5 25 17 25 26 0 10 -6 14
-14 11 -18 -7 -28 37 -12 53 14 14 -9 30 -47 30 -16 0 -61 11 -100 25 -48 17
-275 59 -667 125 -327 54 -901 153 -1275 220 -687 121 -951 170 -2128 389
-269 50 -499 91 -512 91 -12 0 -25 6 -28 14 -7 19 -88 31 -99 14 -6 -10 -10
-10 -18 2 -9 13 -11 13 -19 1 -8 -12 -12 -12 -24 -2 -9 7 -18 8 -21 2 -3 -5 0
-12 6 -14 7 -3 3 -6 -9 -6 -13 -1 -23 3 -23 9 0 5 -21 8 -47 6 -64 -4 -279
-54 -321 -73 -28 -14 -142 -128 -142 -143 0 -10 147 -50 180 -50 17 0 115 -25
218 -56 103 -30 286 -85 407 -120 121 -36 292 -87 379 -114 125 -38 165 -46
184 -39 32 12 40 4 19 -19 -24 -26 -11 -33 28 -15 24 11 43 13 71 8 l39 -8
-41 -10 c-33 -7 -59 -26 -120 -88 -43 -43 -76 -81 -73 -84 3 -3 95 -33 205
-66 225 -69 241 -76 225 -92 -15 -15 -14 -27 2 -27 35 -1 38 -16 10 -65 -14
-27 -21 -45 -15 -41 15 9 15 4 0 -29 -6 -14 -16 -25 -21 -25 -5 0 -4 7 3 15 7
9 10 18 7 21 -9 10 -27 -34 -21 -51 4 -11 13 -14 28 -9 50 15 166 68 230 105
l69 40 321 -97 c177 -53 444 -134 594 -180 150 -46 275 -84 277 -84 12 0 2
-26 -34 -90 -22 -39 -38 -70 -35 -70 3 0 -4 -9 -15 -21 -27 -29 -16 -53 20
-45 40 8 163 68 236 115 l61 40 274 -83 c262 -80 274 -83 300 -68 33 19 47 9
29 -19 -7 -12 -11 -22 -9 -23 19 -10 151 -102 154 -107 2 -4 -9 -36 -26 -71
-50 -105 -40 -110 70 -42 l74 45 33 -18 c69 -36 69 -42 22 -130 -23 -43 -48
-85 -56 -94 -7 -9 -11 -24 -7 -33 9 -24 38 -16 171 50 l111 56 169 -107 c92
-59 182 -115 198 -126 17 -10 91 -59 167 -108 98 -64 142 -88 157 -84 22 6 26
-4 15 -44 -5 -16 -20 -26 -59 -38 -79 -22 -134 -69 -173 -145 -18 -36 -33 -83
-35 -105 -2 -47 -23 -77 -38 -54 -5 8 -9 17 -9 21 0 4 -10 13 -22 19 -21 11
-22 11 -10 -4 8 -9 11 -20 8 -25 -3 -5 6 -14 20 -21 21 -9 30 -9 42 1 13 11
15 10 10 -2 -3 -9 0 -24 8 -35 15 -21 18 -36 7 -33 -11 4 -123 -22 -148 -33
-11 -5 -38 -13 -60 -17 -57 -11 -45 -26 23 -28 89 -1 102 -3 102 -14 0 -5 -34
-9 -77 -9 -47 0 -79 -4 -81 -10 -7 -22 -110 -6 -132 20 -3 3 -13 8 -22 12 -10
3 -18 13 -18 21 0 18 -23 27 -40 16 -11 -7 -10 -11 3 -25 9 -9 21 -14 26 -11
5 3 11 -1 15 -9 8 -21 -11 -19 -71 9 -61 29 -88 70 -77 119 8 38 64 159 94
205 12 17 20 32 17 32 -10 0 -90 -132 -108 -179 -38 -101 -18 -154 75 -197 48
-22 49 -24 21 -25 l-30 -1 35 -13 35 -13 -30 -2 -30 -1 33 -17 c27 -13 34 -13
45 -2 10 10 9 11 -3 5 -8 -5 -12 -4 -8 0 11 11 57 15 63 5 2 -4 -9 -13 -26
-20 -19 -8 -26 -16 -19 -20 7 -5 2 -10 -14 -14 -27 -7 -36 -26 -13 -26 22 0
60 37 45 43 -9 4 -8 6 3 6 16 1 39 -17 39 -31 0 -4 -10 -8 -22 -8 -18 0 -20
-2 -8 -10 11 -7 9 -11 -13 -19 -16 -6 -35 -11 -43 -11 -8 0 -13 -4 -10 -9 3
-5 -9 -14 -27 -21 -51 -19 -140 -62 -169 -82 -14 -10 -33 -18 -41 -18 -9 0
-17 -3 -19 -7 -3 -9 -131 -69 -164 -78 -12 -3 -32 -1 -45 4 -23 9 -23 10 16
25 22 9 54 23 70 31 17 7 39 15 49 17 31 5 30 27 -1 39 -35 13 -64 39 -57 50
3 5 0 9 -7 9 -7 0 -21 7 -31 17 -10 9 -18 11 -18 6 0 -6 7 -16 15 -23 13 -11
13 -15 3 -21 -10 -7 -9 -9 4 -9 11 0 15 -5 12 -14 -3 -8 4 -24 15 -35 12 -12
17 -21 12 -21 -6 0 -13 5 -16 10 -3 5 -11 10 -16 10 -6 0 -7 -5 -4 -10 6 -10
-7 -14 -33 -11 -18 3 -53 -29 -46 -40 3 -5 0 -9 -6 -9 -6 0 -16 11 -22 25 -7
15 -19 25 -32 25 -20 0 -20 -1 4 -21 14 -11 18 -19 10 -16 -13 3 -56 -14 -130
-52 -24 -13 -18 -33 15 -51 29 -16 31 -16 51 5 11 12 27 24 35 27 8 3 11 9 7
13 -4 4 -20 0 -37 -8 -16 -8 -32 -13 -35 -10 -6 7 63 43 81 43 7 0 13 5 13 10
0 16 20 12 47 -10 35 -27 105 -27 149 1 19 11 39 17 46 13 7 -4 10 -4 6 1 -7
7 162 95 183 95 5 0 9 5 9 10 0 6 9 10 19 10 11 0 21 5 23 11 2 7 13 9 25 5
36 -11 16 -36 -28 -36 -27 0 -39 -4 -39 -15 0 -13 -55 -35 -92 -35 -9 0 -23
-12 -30 -27 -8 -15 -27 -31 -46 -38 -19 -6 -41 -20 -50 -31 -16 -20 -101 -64
-122 -64 -6 0 -9 -4 -6 -8 2 -4 -5 -9 -17 -9 -12 -1 -23 -7 -25 -13 -2 -5 -11
-10 -21 -10 -9 0 -25 -6 -35 -13 -16 -12 -14 -13 18 -9 60 7 41 -12 -46 -47
-46 -18 -96 -39 -113 -46 -16 -7 -49 -19 -73 -26 -23 -7 -40 -14 -38 -16 4 -4
82 16 161 43 64 21 115 28 115 15 0 -6 -15 -11 -32 -11 -30 0 -106 -36 -96
-45 7 -7 48 7 48 16 0 5 11 9 24 9 12 0 44 11 70 25 26 14 54 25 62 25 7 0 14
4 14 10 0 5 20 15 45 21 26 6 50 20 56 30 5 11 16 19 24 19 8 0 15 4 15 8 0 5
19 15 43 22 67 20 108 40 114 56 3 8 12 13 19 10 7 -3 16 -1 19 4 4 6 15 10
26 10 13 0 18 4 13 12 -5 8 -2 9 9 5 10 -3 24 -4 32 -1 13 5 13 9 3 23 -12 14
-11 15 5 2 11 -9 21 -11 25 -5 4 5 14 10 22 12 8 2 21 8 30 13 13 9 12 10 -2
5 -11 -3 -18 0 -18 7 0 11 91 47 121 47 7 0 45 15 84 34 176 85 213 100 250
103 80 4 100 8 101 21 1 6 3 15 4 20 1 4 2 11 1 16 -3 16 34 35 67 36 29 0 32
-3 32 -28 0 -27 -40 -79 -52 -67 -2 3 -5 -2 -5 -10 0 -12 15 -15 76 -15 72 0
191 18 201 30 3 4 52 14 110 24 134 23 334 76 430 114 41 16 100 37 130 47 30
10 60 21 65 25 6 3 33 15 60 24 28 10 118 51 200 91 83 40 236 114 340 164
105 51 198 96 207 101 22 13 28 13 28 0 0 -6 -61 -40 -135 -75 -376 -180 -631
-297 -733 -336 -62 -24 -109 -45 -104 -47 17 -5 304 113 451 187 45 23 85 41
87 39 2 -2 -37 -24 -86 -48 -50 -24 -90 -47 -90 -50 0 -3 110 -23 245 -45 135
-22 245 -44 245 -50 0 -5 -21 -44 -45 -85 -47 -78 -57 -120 -28 -120 19 0 207
98 268 140 82 57 99 37 50 -60 -20 -39 -33 -75 -30 -80 4 -6 22 -2 45 10 l38
20 6 -28 c2 -15 8 -53 11 -84 l6 -57 -48 -7 c-90 -13 -149 -57 -194 -144 -18
-35 -23 -61 -24 -122 0 -69 3 -80 30 -120 44 -61 95 -88 172 -88 52 0 64 -3
73 -20 15 -29 90 -69 142 -76 33 -5 56 -1 89 13 173 77 215 327 71 423 -25 16
-51 30 -59 30 -30 0 -7 18 88 68 l101 52 150 -107 c118 -85 148 -111 144 -126
-3 -11 0 -27 6 -37 9 -14 4 -29 -26 -79 -25 -41 -35 -67 -31 -81 6 -18 13 -16
116 36 60 30 114 52 120 49 5 -4 35 15 67 42 134 115 180 141 131 74 -27 -37
-31 -32 89 -115 46 -33 82 -52 82 -44 1 8 8 4 19 -9 11 -13 27 -23 36 -23 9 0
14 -4 11 -9 -3 -4 12 -5 34 -1 33 6 38 5 29 -6 -6 -8 -8 -14 -4 -14 4 0 3 -6
-4 -13 -14 -17 5 -37 35 -37 31 0 48 -25 40 -60 -6 -30 11 -127 25 -143 17
-20 48 5 64 52 35 106 110 196 231 276 46 31 84 58 84 61 0 4 -88 -42 -137
-72 -12 -8 -30 -11 -39 -7 -11 4 -15 2 -11 -4 4 -6 -9 -17 -31 -26 -39 -16
-61 -5 -40 20 8 10 6 13 -5 13 -9 0 -21 8 -26 18 -6 9 -11 13 -11 8 0 -5 -7
-3 -15 4 -9 7 -13 20 -10 30 3 10 -4 24 -17 36 -16 13 -19 14 -10 2 11 -14 11
-16 -6 -11 -14 3 -18 12 -16 31 5 41 -6 74 -22 68 -8 -3 -13 -2 -12 2 2 4 -8
26 -22 50 -18 31 -29 42 -42 39 -10 -3 -18 -2 -18 3 0 4 9 10 20 13 14 4 26
-2 38 -20 9 -13 29 -36 44 -50 15 -14 25 -29 23 -33 -3 -5 2 -11 11 -14 11 -4
14 -1 10 12 -8 23 53 50 66 29 12 -19 9 -27 -11 -27 -25 0 -37 -18 -17 -26 9
-3 13 -10 10 -15 -3 -5 4 -9 15 -9 11 0 23 4 26 10 3 6 16 10 28 10 18 0 19
-2 7 -10 -11 -8 -6 -10 20 -9 47 2 94 -23 77 -41 -10 -10 -4 -11 28 -7 l40 6
-25 -20 -25 -20 40 16 c22 9 42 20 43 25 2 6 12 10 22 10 22 0 50 29 29 31 -8
1 -17 1 -21 0 -4 0 -12 8 -18 19 -11 20 -11 20 22 0 18 -11 40 -20 49 -20 9 0
23 -10 31 -21 7 -12 21 -20 30 -18 13 3 7 24 -34 122 -28 64 -54 115 -59 111
-5 -3 -8 3 -6 13 2 20 -114 303 -125 303 -7 0 -2 -13 71 -179 23 -51 39 -96
36 -99 -2 -3 -28 44 -57 104 -28 60 -55 111 -60 112 -4 2 -6 8 -3 12 3 5 -3
18 -14 29 l-21 21 25 6 c14 3 22 11 18 17 -3 5 -2 7 4 4 14 -9 85 12 78 23 -3
6 0 7 8 4 23 -8 280 92 278 109 -1 4 82 50 183 102 190 97 239 125 338 188 31
21 60 37 64 37 12 0 74 51 74 61 0 5 -15 9 -32 9 -63 1 -157 56 -258 151 -92
87 -87 86 -169 44 -67 -33 -71 -37 -65 -63 4 -15 11 -32 16 -39 5 -7 6 -18 2
-24 -4 -8 -3 -9 4 -5 7 4 12 2 12 -3 0 -6 -5 -11 -11 -11 -6 0 -9 -7 -6 -15 8
-19 -14 -60 -44 -83 -56 -44 -138 -71 -109 -37 10 12 9 15 -6 15 -18 1 -18 1
1 16 19 15 18 16 -14 9 -23 -5 -31 -4 -27 4 4 6 0 14 -8 17 -19 7 -50 -21 -41
-38 4 -7 1 -6 -7 3 -7 8 -21 18 -30 22 -9 3 -29 29 -43 57 -14 27 -28 50 -31
50 -3 0 -18 -7 -35 -16 -33 -17 -33 -22 1 -101 13 -29 15 -40 5 -37 -7 3 -15
-4 -18 -17 -5 -17 -11 -20 -31 -15 -16 4 -35 1 -49 -8 -12 -8 -44 -17 -72 -20
-27 -3 -84 -15 -125 -27 -41 -11 -87 -23 -102 -26 -16 -3 -28 -9 -28 -14 0 -5
-15 -9 -33 -9 -18 0 -37 -4 -43 -9 -14 -13 -83 -21 -89 -10 -8 11 -62 12 -69
1 -3 -5 -18 -7 -34 -4 -16 2 -33 -1 -36 -7 -4 -6 -16 -11 -27 -11 -11 0 -39
-9 -61 -20 -23 -11 -43 -19 -44 -17 -6 5 65 159 108 235 24 42 68 102 98 132
71 71 218 182 350 264 58 36 112 69 120 75 8 5 -14 1 -50 -11 -36 -11 -72 -26
-80 -33 -16 -14 -156 -85 -166 -85 -4 0 -4 14 0 30 5 27 3 30 -19 30 -14 0
-25 5 -25 10 0 6 -15 11 -32 11 -24 1 -27 3 -10 6 12 2 22 10 22 17 0 20 -12
27 -26 15 -9 -7 -18 -5 -33 10 -20 20 -20 20 0 26 26 8 25 13 -18 100 -27 55
-43 75 -58 76 -17 1 -17 2 -2 6 20 5 20 8 7 34 -13 24 -28 24 -59 0 -17 -13
-24 -29 -25 -60 -1 -24 -9 -47 -17 -52 -18 -11 -60 -11 -79 1 -10 6 -28 2 -60
-15 l-45 -25 30 25 c17 14 71 55 120 90 95 67 358 296 411 357 18 20 44 44 59
54 17 11 25 24 22 35 -8 29 19 56 83 85 34 15 57 31 53 37 -3 6 -1 7 5 3 15
-9 112 33 109 47 -1 6 40 26 90 43 111 38 175 68 212 99 21 18 472 245 487
245 2 0 74 34 161 76 207 100 261 124 276 124 7 -1 2 -9 -10 -19 -27 -23 -30
-35 -5 -22 9 5 30 15 45 22 l28 13 -23 9 c-21 8 -19 11 35 38 l57 29 -16 38
c-30 67 -39 111 -28 130 9 15 119 81 136 82 3 0 15 -21 25 -47 11 -31 19 -42
21 -30 6 29 37 16 40 -17 3 -24 1 -28 -13 -22 -13 4 -16 2 -11 -9 3 -8 8 -21
11 -27 8 -20 -6 -33 -65 -63 -30 -15 -61 -36 -68 -46 -7 -11 -19 -19 -27 -19
-8 0 -17 -5 -21 -12 -5 -8 -2 -9 12 -4 47 20 53 19 59 -10 14 -60 16 -63 51
-70 19 -3 39 -15 45 -25 5 -11 18 -19 28 -19 27 0 15 -39 -15 -51 -28 -10 -32
-37 -7 -46 9 -4 25 -15 35 -25 10 -10 27 -18 38 -18 27 0 25 -16 -6 -57 -92
-120 -60 -258 65 -277 18 -2 43 -14 56 -26 67 -63 184 -31 229 64 23 49 21
131 -5 167 -24 34 -68 59 -104 59 -14 0 -25 5 -25 10 0 18 -64 50 -101 50 -36
0 -57 20 -44 40 3 5 -4 15 -15 23 -16 11 -19 21 -14 41 5 20 2 26 -10 26 -9 0
-15 3 -14 8 0 4 -2 15 -6 24 -14 31 -2 40 25 19 15 -11 29 -18 32 -14 3 3 4
-6 1 -20 -2 -14 0 -29 6 -32 5 -3 10 1 10 9 0 9 5 16 10 16 6 0 10 6 10 13 0
6 16 22 34 34 26 17 33 27 29 43 -6 23 -21 26 -29 6 -3 -8 -17 -22 -31 -32
-25 -16 -26 -16 -19 9 5 21 2 26 -20 31 -20 5 -23 10 -14 20 8 11 8 15 -2 19
-10 4 -11 7 0 18 9 9 12 10 12 1 0 -18 18 -14 40 8 16 16 20 33 20 79 0 33 5
63 11 67 8 5 8 9 -1 14 -16 10 26 73 44 67 14 -6 285 134 502 258 90 52 168
95 173 95 5 0 15 7 22 16 8 9 32 25 54 35 72 33 303 206 399 298 112 107 210
204 230 229 29 34 6 26 -37 -12z m-202 -76 c3 -5 -1 -10 -9 -10 -9 0 -16 5
-16 10 0 6 4 10 9 10 6 0 13 -4 16 -10z m-60 -170 c-3 -5 -12 -10 -18 -10 -7
0 -6 4 3 10 19 12 23 12 15 0z m-802 -167 c-7 -2 -19 -2 -25 0 -7 3 -2 5 12 5
14 0 19 -2 13 -5z m182 -193 c-3 -5 -12 -10 -18 -10 -7 0 -6 4 3 10 19 12 23
12 15 0z m55 -14 c0 -7 -72 -47 -77 -42 -3 2 12 14 34 25 42 22 43 23 43 17z
m-775 -26 c-3 -5 -11 -10 -16 -10 -6 0 -7 5 -4 10 3 6 11 10 16 10 6 0 7 -4 4
-10z m-28 -15 c8 -9 12 -19 9 -22 -4 -4 -16 3 -28 15 -14 13 -17 22 -10 22 8
0 20 -7 29 -15z m713 -10 c0 -2 -19 -14 -42 -26 -46 -23 -46 -17 -1 12 29 18
43 23 43 14z m-11170 -34 c0 -4 -11 -6 -25 -3 -14 2 -25 6 -25 8 0 2 11 4 25
4 14 0 25 -4 25 -9z m79 -7 c10 -9 -45 -3 -59 6 -11 7 -5 8 20 4 19 -4 37 -8
39 -10z m10301 12 c0 -3 -4 -8 -10 -11 -5 -3 -10 -1 -10 4 0 6 5 11 10 11 6 0
10 -2 10 -4z m699 -20 c-2 -2 -15 -9 -29 -15 -24 -11 -24 -11 -6 3 16 13 49
24 35 12z m-10769 -36 c0 -5 10 -10 21 -10 12 0 50 -5 85 -12 47 -8 64 -16 64
-27 0 -14 -2 -14 -9 -2 -7 10 -28 15 -65 15 -31 1 -56 4 -56 7 0 3 -12 6 -27
6 -16 0 -44 7 -63 16 l-35 15 43 1 c23 1 42 -3 42 -9z m10690 -4 c0 -2 -7 -7
-16 -10 -8 -3 -12 -2 -9 4 6 10 25 14 25 6z m-10435 -56 c17 -7 15 -9 -12 -9
-17 -1 -40 -4 -50 -8 -16 -6 -16 -5 -4 10 15 18 35 20 66 7z m9935 -10 c0 -5
-2 -10 -4 -10 -3 0 -8 5 -11 10 -3 6 -1 10 4 10 6 0 11 -4 11 -10z m-9740 -40
c18 -12 2 -12 -25 0 -13 6 -15 9 -5 9 8 0 22 -4 30 -9z m9847 -24 c1 -1 -10
-14 -24 -30 l-25 -30 -36 20 c-43 23 -51 41 -20 47 18 3 97 -2 105 -7z m67
-79 c2 -10 -4 -49 -16 -86 -23 -76 -43 -106 -33 -49 6 31 4 38 -14 47 -22 12
-29 55 -12 66 6 3 19 -5 30 -17 21 -21 21 -21 21 -1 0 14 -9 23 -32 29 -48 14
-45 31 6 31 36 0 46 -4 50 -20z m-9079 -117 c13 -6 15 -9 5 -9 -8 0 -22 4 -30
9 -18 12 -2 12 25 0z m8875 -76 c13 -34 13 -41 -5 -41 -8 0 -12 4 -9 8 2 4 0
10 -6 14 -13 8 -13 45 0 45 6 0 15 -12 20 -26z m122 -24 c2 -8 2 -25 0 -38 -4
-22 -5 -22 -23 -6 -11 9 -19 27 -19 40 0 13 -5 26 -10 29 -6 4 -8 11 -5 16 8
11 53 -21 57 -41z m-9195 14 c-3 -3 -12 -4 -19 -1 -8 3 -5 6 6 6 11 1 17 -2
13 -5z m283 -50 c204 -51 225 -59 197 -69 -15 -6 -394 81 -419 96 -16 10 1 31
20 25 10 -3 100 -26 202 -52z m-243 40 c-3 -3 -12 -4 -19 -1 -8 3 -5 6 6 6 11
1 17 -2 13 -5z m9098 -39 c0 -23 -34 -33 -45 -14 -13 20 1 40 24 37 13 -2 21
-10 21 -23z m105 -9 c0 -11 -19 -15 -25 -6 -3 5 1 10 9 10 9 0 16 -2 16 -4z
m-8202 -63 c-10 -2 -28 -2 -40 0 -13 2 -5 4 17 4 22 1 32 -1 23 -4z m107 -23
l20 -9 -20 0 c-11 0 -27 4 -35 9 -13 9 -13 10 0 9 8 0 24 -4 35 -9z m149 -40
c22 -5 64 -12 91 -16 l50 -8 -44 -6 c-52 -8 -157 16 -166 38 -4 10 0 12 11 8
9 -4 35 -11 58 -16z m-292 -51 c133 -33 250 -58 260 -56 10 3 16 1 13 -3 -7
-12 612 -162 637 -154 12 4 18 2 14 -4 -3 -5 14 -15 39 -21 49 -12 58 -28 23
-36 -29 -7 -1251 308 -1256 323 -6 19 16 15 270 -49z m8168 23 c0 -13 -12 -22
-22 -16 -10 6 -1 24 13 24 5 0 9 -4 9 -8z m-7703 -8 c-3 -3 -12 -4 -19 -1 -8
3 -5 6 6 6 11 1 17 -2 13 -5z m108 -29 c88 -26 88 -33 1 -11 -47 13 -102 35
-86 35 3 0 41 -10 85 -24z m2558 -88 c7 4 6 -1 -2 -10 -19 -24 -30 -21 -23 5
3 12 7 17 10 10 2 -7 9 -9 15 -5z m5167 -27 c50 -50 -8 -160 -85 -160 -36 0
-65 33 -65 76 0 28 8 44 34 70 40 40 85 45 116 14z m138 -79 c6 -16 8 -40 5
-53 -8 -31 -63 -88 -85 -88 -17 0 -16 3 7 28 14 15 28 35 31 45 3 9 10 14 16
11 8 -5 9 8 6 40 -6 52 5 61 20 17z m-6958 -26 c19 -7 28 -13 20 -13 -8 0 -31
6 -50 13 -19 7 -28 13 -20 13 8 0 31 -6 50 -13z m212 -57 c43 -12 76 -23 74
-26 -5 -4 -199 47 -206 55 -6 7 36 -2 132 -29z m1182 -29 c-24 -27 -29 -16 -8
16 10 16 20 23 22 16 2 -7 -4 -21 -14 -32z m-1284 -53 l35 6 -19 -21 c-22 -24
-23 -23 29 -44 22 -9 34 -16 27 -16 -16 -1 -412 98 -425 106 -6 3 -3 11 7 18
13 10 45 6 164 -22 99 -23 158 -32 182 -27z m217 48 c-3 -3 -12 -4 -19 -1 -8
3 -5 6 6 6 11 1 17 -2 13 -5z m2743 -78 c0 -8 -9 -18 -20 -21 -11 -3 -26 -12
-32 -18 -30 -28 -99 -69 -181 -107 -114 -52 -123 -51 -21 4 45 24 118 69 164
100 45 31 84 56 86 56 2 0 4 -6 4 -14z m2020 10 c0 -2 -7 -7 -16 -10 -8 -3
-12 -2 -9 4 6 10 25 14 25 6z m-4723 -112 c103 -66 98 -62 90 -70 -3 -3 -32
10 -64 30 -32 19 -75 45 -96 56 -21 11 -35 25 -32 30 9 14 6 15 102 -46z
m4273 -32 c0 -10 -111 -65 -117 -58 -3 3 21 18 53 35 68 35 64 33 64 23z m137
-46 c-3 -7 -41 -28 -84 -46 -93 -39 -270 -104 -262 -96 17 17 345 173 347 165
2 -5 2 -16 -1 -23z m-2261 -91 c-11 -8 -25 -15 -30 -15 -6 1 0 7 14 15 32 19
40 18 16 0z m44 -9 c0 -2 -7 -7 -16 -10 -8 -3 -12 -2 -9 4 6 10 25 14 25 6z
m1330 -38 c0 -4 -7 -8 -15 -8 -13 0 -79 -29 -220 -95 -82 -39 -227 -97 -231
-92 -2 2 26 17 63 32 38 15 127 56 198 90 183 86 205 94 205 73z m-1410 -2 c0
-2 -7 -7 -16 -10 -8 -3 -12 -2 -9 4 6 10 25 14 25 6z m2052 -32 c-17 -12 -26
-12 -39 -4 -17 11 -17 11 0 6 9 -3 17 -1 17 4 0 6 10 10 22 10 l22 0 -22 -16z
m-2127 -8 c-11 -7 -50 -23 -87 -35 -38 -13 -68 -27 -68 -32 0 -6 -4 -7 -10 -4
-5 3 -27 -1 -47 -11 -70 -31 -98 -42 -138 -54 -22 -7 -50 -19 -63 -27 -12 -7
-26 -12 -31 -9 -4 3 -25 1 -45 -5 -21 -6 -40 -9 -42 -6 -5 4 140 58 286 106
52 17 129 44 170 60 83 33 105 38 75 17z m-650 -26 c3 -6 -1 -7 -9 -4 -18 7
-21 14 -7 14 6 0 13 -4 16 -10z m90 -11 c-8 -12 -38 -24 -85 -33 l-35 -7 35
16 c19 9 42 21 50 25 21 12 42 12 35 -1z m2655 -45 c-22 -20 -43 -34 -46 -32
-6 6 66 68 78 68 5 0 -10 -16 -32 -36z m-2783 0 c-3 -3 -12 -4 -19 -1 -8 3 -5
6 6 6 11 1 17 -2 13 -5z m-762 -34 c24 -16 48 -30 54 -30 6 0 11 -3 11 -8 0
-4 16 -16 35 -26 19 -11 35 -23 35 -28 0 -10 -37 11 -140 79 -36 24 -59 43
-52 43 8 0 33 -13 57 -30z m3475 -20 c0 -5 -5 -10 -11 -10 -5 0 -7 5 -4 10 3
6 8 10 11 10 2 0 4 -4 4 -10z m-1833 -16 c-3 -3 -12 -4 -19 -1 -8 3 -5 6 6 6
11 1 17 -2 13 -5z m793 -19 c0 -6 -88 -45 -98 -44 -6 0 88 48 96 49 1 0 2 -2
2 -5z m980 -3 c0 -5 -12 -15 -27 -23 -47 -23 -49 -22 -13 4 40 30 40 30 40 19z
m-2312 -29 c20 -9 42 -15 49 -14 8 1 9 -7 4 -26 -7 -24 -13 -28 -43 -27 -28 1
-34 -2 -31 -15 2 -9 -2 -24 -9 -34 -13 -18 -15 -18 -38 1 -23 18 -23 21 -8 43
9 15 13 37 10 57 -5 38 8 41 66 15z m1565 10 c-7 -2 -19 -2 -25 0 -7 3 -2 5
12 5 14 0 19 -2 13 -5z m870 -110 c15 -35 22 -63 16 -63 -12 0 -59 102 -59
127 0 26 14 5 43 -64z m-233 47 c0 -5 -5 -10 -11 -10 -5 0 -7 5 -4 10 3 6 8
10 11 10 2 0 4 -4 4 -10z m-1968 -38 c2 -15 0 -38 -4 -52 -7 -25 -8 -24 -4 2
2 15 -1 25 -5 22 -5 -3 -9 -12 -9 -20 0 -25 -33 -51 -79 -64 -54 -14 -68 -3
-73 55 l-3 40 60 22 c85 31 112 30 117 -5z m1884 -17 c-26 -19 -42 -19 -26 0
7 8 20 15 29 15 13 -1 13 -3 -3 -15z m-976 -119 c29 -10 42 -9 70 2 31 12 33
12 20 -2 -8 -8 -37 -21 -65 -28 -27 -7 -54 -17 -58 -23 -6 -7 -10 -6 -14 3 -2
6 -11 12 -19 12 -9 0 -12 5 -9 10 4 6 -13 10 -44 10 -27 0 -52 -4 -55 -9 -7
-11 49 -25 64 -16 5 3 8 0 5 -7 -4 -9 -25 -13 -68 -12 -45 0 -64 -3 -64 -12 0
-7 5 -10 10 -7 6 3 7 1 4 -4 -4 -6 -18 -13 -32 -15 -13 -3 -22 -2 -20 2 7 11
-43 30 -62 24 -14 -5 -13 -3 3 9 11 9 34 19 50 23 16 4 47 16 69 27 75 38 131
41 215 13z m1340 3 c0 -5 -4 -9 -10 -9 -5 0 -10 7 -10 16 0 8 5 12 10 9 6 -3
10 -10 10 -16z m-655 -27 c-6 -5 -35 -19 -65 -32 -30 -12 -59 -28 -65 -35 -17
-21 -158 -73 -197 -73 -20 0 -56 -7 -80 -16 -47 -18 -90 -17 -155 4 -50 15
-52 22 -18 44 30 20 66 20 130 1 47 -15 177 -17 169 -3 -2 3 19 14 48 24 29 9
93 34 142 55 97 41 105 44 91 31z m105 -7 c0 -2 -24 -17 -52 -31 -29 -15 -76
-41 -104 -59 -28 -18 -136 -72 -240 -120 -104 -48 -223 -104 -264 -125 -73
-35 -130 -56 -130 -45 0 2 26 16 58 30 79 37 386 185 572 277 173 86 160 80
160 73z m-805 -50 c-16 -14 -36 -25 -44 -25 -8 0 -20 -8 -27 -17 -7 -10 -16
-14 -21 -10 -8 9 3 17 71 54 53 29 58 28 21 -2z m-155 -7 c-13 -5 -25 -6 -29
-3 -9 10 21 24 37 17 12 -4 10 -7 -8 -14z m314 3 c6 -8 -73 -51 -93 -51 -5 0
-16 -7 -25 -15 -8 -8 -17 -11 -21 -6 -3 5 4 12 15 16 11 3 25 15 31 26 5 11
15 19 22 18 31 -4 58 2 52 11 -3 6 -2 10 4 10 5 0 12 -4 15 -9z m-470 -31 c34
-13 25 -31 -25 -52 -30 -13 -40 -22 -35 -33 4 -10 -1 -15 -14 -15 -10 0 -22
-5 -26 -12 -5 -8 -1 -9 12 -4 14 5 16 4 8 -4 -13 -13 -54 -5 -54 10 0 4 11 11
25 14 14 4 23 11 20 16 -3 6 0 10 7 11 7 0 0 5 -17 10 -16 5 -45 7 -62 4 -59
-10 -38 20 30 42 72 24 96 27 131 13z m143 4 c-3 -3 -12 -4 -19 -1 -8 3 -5 6
6 6 11 1 17 -2 13 -5z m158 -54 c-3 -5 -10 -10 -16 -10 -5 0 -9 5 -9 10 0 6 7
10 16 10 8 0 12 -4 9 -10z m-575 -29 c0 -11 -80 -41 -105 -41 -12 1 3 12 35
29 53 26 70 29 70 12z m80 -41 c0 -5 -8 -14 -17 -20 -16 -10 -16 -11 2 -5 11
3 34 9 50 11 l30 5 -24 -20 c-32 -29 -67 -36 -99 -21 l-27 12 25 14 c30 16 22
18 -15 4 -34 -13 -52 -3 -28 16 20 15 103 19 103 4z m-125 -43 c6 -6 1 -7 -15
-3 -14 3 -31 6 -37 6 -7 0 -13 7 -13 15 0 12 5 13 28 3 15 -7 32 -16 37 -21z
m218 6 c-22 -4 -26 -11 -24 -43 0 -10 -1 -11 -5 -2 -4 8 -18 11 -42 7 l-37 -6
45 25 c25 14 54 25 65 24 17 -1 17 -1 -2 -5z m2981 -108 c3 -20 1 -23 -10 -14
-11 9 -14 8 -14 -1 0 -8 -3 -10 -7 -6 -5 4 0 13 10 21 16 12 16 13 0 26 -11 9
-14 10 -9 2 4 -7 3 -13 -2 -13 -5 0 -14 10 -20 23 -10 20 -11 20 -9 2 1 -15
-3 -19 -21 -18 -15 2 -21 -1 -16 -9 4 -7 3 -8 -4 -4 -16 10 -3 36 14 29 8 -3
14 -1 12 5 -2 6 6 17 17 25 18 14 21 13 38 -14 10 -16 20 -40 21 -54z m-3198
39 c-24 -21 -36 -25 -65 -20 -25 4 -44 0 -68 -15 -38 -24 -43 -39 -10 -33 13
3 8 -2 -13 -12 -19 -9 -39 -22 -45 -29 -11 -14 -79 -30 -70 -16 3 5 -4 7 -15
4 -11 -3 -23 -9 -26 -14 -3 -5 -17 -9 -32 -8 l-27 1 29 12 c21 10 25 15 15 20
-8 3 -3 3 10 0 16 -4 21 -3 17 5 -4 6 -1 11 6 12 7 1 20 2 28 3 8 2 25 3 38 4
13 1 22 9 22 18 0 15 -2 15 -26 -1 -41 -26 -35 -14 17 35 35 33 53 44 66 38
27 -10 45 -9 37 3 -4 7 2 9 17 7 13 -2 23 -9 22 -15 -3 -13 13 -9 57 14 40 21
47 14 16 -13z m94 -8 c0 -9 -30 -14 -35 -6 -4 6 3 10 14 10 12 0 21 -2 21 -4z
m110 -46 c-8 -5 -10 -10 -5 -10 14 0 -17 -20 -32 -20 -21 0 -15 16 10 28 28
13 47 15 27 2z m-675 -42 c-11 -6 -24 -17 -28 -25 -4 -7 -15 -13 -22 -13 -8 0
-15 -5 -15 -10 0 -13 -41 -29 -87 -35 -20 -2 -45 -7 -57 -10 -16 -4 -17 -4 -6
3 8 6 31 13 50 17 19 4 47 16 62 26 14 11 31 19 37 19 6 0 11 4 11 9 0 5 12
14 28 19 37 14 51 14 27 0z m350 -7 c-13 -13 -85 -43 -85 -36 0 3 19 14 43 25
50 22 54 23 42 11z m225 -11 c-8 -5 -22 -9 -30 -9 -10 0 -8 3 5 9 27 12 43 12
25 0z m-557 -17 c-7 -2 -19 -2 -25 0 -7 3 -2 5 12 5 14 0 19 -2 13 -5z m72 -3
c-3 -5 -14 -10 -23 -10 -15 0 -15 2 -2 10 20 13 33 13 25 0z m435 6 c0 -3 -4
-8 -10 -11 -5 -3 -10 -1 -10 4 0 6 5 11 10 11 6 0 10 -2 10 -4z m-1120 -61
c-4 -25 -10 -49 -15 -53 -4 -4 -6 3 -3 15 6 24 -17 38 -45 27 -12 -4 -14 -1
-10 14 3 14 12 18 33 16 18 -2 30 2 34 11 10 28 13 15 6 -30z m3857 3 c-3 -7
-5 -2 -5 12 0 14 2 19 5 13 2 -7 2 -19 0 -25z m-3802 2 c-3 -5 -12 -10 -18
-10 -7 0 -6 4 3 10 19 12 23 12 15 0z m1565 -29 c74 -13 96 -21 98 -34 3 -14
-1 -17 -20 -13 -13 3 -62 12 -111 20 -97 17 -116 24 -96 37 17 11 15 11 129
-10z m2780 15 c0 -2 -7 -7 -16 -10 -8 -3 -12 -2 -9 4 6 10 25 14 25 6z m-4015
-16 c13 -6 15 -9 5 -9 -8 0 -22 4 -30 9 -18 12 -2 12 25 0z m-84 -16 c-25 -8
-47 -12 -49 -9 -8 7 40 24 68 23 18 0 12 -4 -19 -14z m4049 6 c-8 -5 -19 -10
-25 -10 -5 0 -3 5 5 10 8 5 20 10 25 10 6 0 3 -5 -5 -10z m-3873 -26 c-5 -5
-57 13 -57 20 0 3 14 0 31 -6 16 -6 28 -12 26 -14z m653 -4 c-8 -5 -19 -10
-25 -10 -5 0 -3 5 5 10 8 5 20 10 25 10 6 0 3 -5 -5 -10z m-606 -21 c-7 -12
-41 -11 -49 1 -4 6 1 7 11 3 11 -4 15 -3 11 4 -5 7 0 9 13 6 11 -3 17 -9 14
-14z m109 14 c-7 -2 -19 -2 -25 0 -7 3 -2 5 12 5 14 0 19 -2 13 -5z m347 -18
c-7 -9 -19 -14 -27 -11 -8 3 -11 1 -8 -4 3 -6 3 -11 -2 -11 -4 -1 -17 -3 -28
-4 -11 -2 -39 -6 -62 -10 -30 -5 -43 -4 -43 4 0 10 22 15 58 14 6 -1 12 3 12
8 0 7 63 25 99 28 11 1 11 -2 1 -14z m110 11 c0 -8 -63 -36 -81 -36 -10 0 -21
5 -25 11 -5 9 1 10 20 5 14 -3 26 -2 26 3 0 5 12 12 28 14 15 2 28 5 30 6 1 0
2 -1 2 -3z m-270 -13 c-8 -2 -28 -9 -45 -14 -28 -8 -29 -8 -11 6 11 8 31 15
45 14 15 0 19 -3 11 -6z m-508 -50 c31 -14 55 -30 52 -35 -3 -5 -14 -6 -24 -3
-17 5 -35 -17 -23 -29 11 -11 43 -6 43 6 0 6 3 9 6 6 8 -8 -24 -68 -37 -68 -5
0 -12 6 -15 13 -3 8 -16 12 -33 9 -22 -3 -32 1 -40 17 -6 11 -17 18 -24 15
-13 -5 -40 73 -31 88 10 16 70 7 126 -19z m-294 -85 c-3 -27 -9 -53 -14 -58
-8 -8 -9 31 -4 130 0 11 3 10 11 -4 6 -10 9 -41 7 -68z m1052 72 c-8 -5 -19
-10 -25 -10 -5 0 -3 5 5 10 8 5 20 10 25 10 6 0 3 -5 -5 -10z m-95 -20 c-3 -5
-14 -10 -23 -10 -10 0 -28 -7 -40 -16 -22 -15 -63 -12 -48 4 22 22 124 42 111
22z m45 0 c0 -5 -8 -10 -17 -10 -15 0 -16 2 -3 10 19 12 20 12 20 0z m-474
-29 l-38 -17 49 -22 c59 -26 130 -29 196 -6 26 9 52 14 59 11 7 -2 -3 -9 -22
-15 -19 -6 -84 -29 -143 -52 -90 -35 -113 -40 -135 -32 -15 6 -48 13 -74 17
-52 7 -69 20 -38 30 26 8 26 25 0 25 -11 0 -20 4 -20 10 0 15 39 32 60 25 11
-4 20 -2 20 4 0 5 21 16 48 24 64 20 85 19 38 -2z m408 -6 c-25 -19 -40 -19
-24 0 7 8 20 15 28 15 13 0 12 -3 -4 -15z m-984 -5 c0 -5 -4 -10 -10 -10 -5 0
-10 5 -10 10 0 6 5 10 10 10 6 0 10 -4 10 -10z m929 -24 c-6 -5 -134 -56 -142
-56 -4 0 -26 -9 -50 -20 -88 -41 -302 -103 -327 -95 -11 3 -35 1 -52 -5 -27
-10 -42 -9 -78 4 -28 9 -47 12 -50 5 -4 -5 -15 -7 -26 -3 -14 4 -15 3 -5 -4 8
-6 9 -12 3 -16 -17 -10 -23 26 -7 44 8 9 15 25 15 36 0 21 17 44 33 44 4 0 5
-4 2 -10 -9 -15 41 -23 64 -10 12 6 21 8 21 4 0 -3 7 -1 15 6 9 7 18 10 22 6
3 -3 1 -6 -6 -6 -7 0 -9 -4 -6 -10 3 -5 -2 -10 -12 -10 -23 -1 -63 -29 -42
-31 8 -1 18 -1 23 0 5 1 4 -5 -3 -13 -13 -16 -6 -16 129 -2 52 6 223 51 245
65 31 19 250 92 234 77z m-1345 -127 c-2 -4 -12 -5 -20 -2 -13 5 -13 8 -2 15
8 6 -4 8 -37 5 l-50 -5 40 13 c34 11 43 10 57 -3 10 -8 15 -18 12 -23z m3781
31 c-3 -5 -13 -10 -21 -10 -8 0 -12 5 -9 10 3 6 13 10 21 10 8 0 12 -4 9 -10z
m-3836 -34 c-2 -2 -18 -8 -34 -11 -21 -5 -27 -4 -20 3 6 5 19 12 30 14 20 4
32 1 24 -6z m136 -36 c3 -5 -3 -10 -15 -10 -12 0 -18 5 -15 10 3 6 10 10 15
10 5 0 12 -4 15 -10z m3835 0 c-20 -13 -33 -13 -25 0 3 6 14 10 23 10 15 0 15
-2 2 -10z m-3682 -30 c13 -16 46 -42 74 -56 47 -24 60 -26 128 -21 51 3 64 2
40 -3 -70 -17 -170 -10 -170 11 0 5 -8 9 -19 9 -10 0 -32 14 -49 30 -18 17
-41 30 -51 30 -24 0 -36 16 -19 23 28 12 45 6 66 -23z m3492 10 c-8 -5 -24
-10 -35 -10 -17 0 -17 2 -5 10 8 5 24 10 35 10 17 0 17 -2 5 -10z m-720 -25
c-7 -9 -15 -13 -19 -10 -3 3 1 10 9 15 21 14 24 12 10 -5z m657 9 c-3 -3 -12
-4 -19 -1 -8 3 -5 6 6 6 11 1 17 -2 13 -5z m-3952 -24 c-3 -5 -14 -10 -23 -9
-14 0 -13 2 3 9 27 11 27 11 20 0z m829 -11 c-3 -6 0 -15 7 -20 11 -7 11 -9
-2 -9 -23 0 -30 11 -18 27 14 16 23 17 13 2z m43 -11 c-3 -8 -6 -5 -6 6 -1 11
2 17 5 13 3 -3 4 -12 1 -19z m-914 -3 c4 -8 2 -17 -3 -20 -6 -4 -10 3 -10 14
0 25 6 27 13 6z m3857 5 c0 -5 -4 -10 -10 -10 -5 0 -10 5 -10 10 0 6 5 10 10
10 6 0 10 -4 10 -10z m307 -24 c-12 -13 -32 -26 -45 -30 -22 -7 -22 -6 -10 13
11 18 45 37 70 40 4 1 -3 -10 -15 -23z m-1387 -51 c80 -59 80 -53 9 -160 -63
-93 -82 -112 -78 -77 4 37 -15 84 -42 105 -34 24 -37 43 -9 52 11 3 20 15 20
25 0 25 31 90 43 90 5 0 31 -16 57 -35z m-2820 -3 c0 -12 -56 -42 -79 -42 -12
0 -21 -5 -21 -11 0 -6 9 -8 21 -4 15 5 19 4 15 -4 -8 -13 -45 -14 -64 -2 -10
6 -4 11 20 20 18 7 49 20 68 31 19 10 36 18 38 19 1 1 2 -3 2 -7z m3335 -22
c3 -5 1 -10 -4 -10 -6 0 -11 5 -11 10 0 6 2 10 4 10 3 0 8 -4 11 -10z m629
-149 c4 -5 0 -12 -6 -14 -7 -3 -1 -6 14 -6 37 -1 57 -37 27 -46 -28 -9 -69 13
-69 37 0 13 -4 17 -12 12 -9 -5 -9 -2 1 9 15 19 37 22 45 8z m141 -21 c-3 -5
-13 -10 -21 -10 -8 0 -12 5 -9 10 3 6 13 10 21 10 8 0 12 -4 9 -10z m370 0 c3
-5 1 -10 -4 -10 -6 0 -11 5 -11 10 0 6 2 10 4 10 3 0 8 -4 11 -10z m-425 -20
c0 -5 -4 -10 -10 -10 -5 0 -10 5 -10 10 0 6 5 10 10 10 6 0 10 -4 10 -10z
m-130 -10 c0 -5 -4 -10 -10 -10 -5 0 -10 5 -10 10 0 6 5 10 10 10 6 0 10 -4
10 -10z m610 -35 c0 -5 -5 -3 -10 5 -5 8 -10 20 -10 25 0 6 5 3 10 -5 5 -8 10
-19 10 -25z m-4795 15 c-27 -12 -43 -12 -25 0 8 5 22 9 30 9 10 0 8 -3 -5 -9z
m4433 -7 c2 -9 -7 -13 -27 -13 -31 0 -42 14 -18 23 19 8 40 3 45 -10z m-243
-3 c3 -5 1 -10 -4 -10 -6 0 -11 5 -11 10 0 6 2 10 4 10 3 0 8 -4 11 -10z m165
-15 c-12 -15 -30 -12 -30 6 0 5 10 9 21 9 18 0 19 -2 9 -15z m44 -30 c-18 -28
-37 -28 -43 0 -2 14 2 17 18 12 12 -3 21 -1 21 4 0 5 5 9 10 9 6 0 3 -11 -6
-25z m425 -30 c0 -5 -6 1 -14 15 -8 14 -14 30 -14 35 0 6 6 -1 14 -15 8 -14
14 -29 14 -35z m-589 35 c0 -5 -2 -10 -4 -10 -3 0 -8 5 -11 10 -3 6 -1 10 4
10 6 0 11 -4 11 -10z m30 -18 c0 -13 -12 -22 -22 -16 -10 6 -1 24 13 24 5 0 9
-4 9 -8z m-79 -81 c79 -75 82 -78 47 -68 -20 6 -34 16 -31 21 3 5 1 6 -6 2 -6
-4 -17 -3 -24 2 -7 6 -24 8 -39 5 -21 -4 -28 -11 -28 -29 0 -23 -3 -21 -61 22
-33 26 -58 48 -56 50 11 12 103 74 108 74 3 0 44 -36 90 -79z m-4421 55 c0 -3
-4 -8 -10 -11 -5 -3 -10 -1 -10 4 0 6 5 11 10 11 6 0 10 -2 10 -4z m4535 -16
c10 -11 15 -20 11 -20 -14 0 -46 21 -46 30 0 16 16 11 35 -10z m190 -20 c-3
-5 -11 -10 -16 -10 -6 0 -7 5 -4 10 3 6 11 10 16 10 6 0 7 -4 4 -10z m359 -6
c3 -8 2 -12 -4 -9 -6 3 -10 10 -10 16 0 14 7 11 14 -7z m-584 -4 c13 -8 13
-10 -2 -10 -9 0 -20 5 -23 10 -8 13 5 13 25 0z m65 -20 c3 -6 -1 -7 -9 -4 -18
7 -21 14 -7 14 6 0 13 -4 16 -10z m-1298 -72 c-3 -8 -6 -5 -6 6 -1 11 2 17 5
13 3 -3 4 -12 1 -19z m1176 -2 c36 -15 49 -59 21 -70 -8 -3 -12 -2 -9 4 3 6
-1 10 -9 10 -8 0 -22 7 -30 16 -9 8 -21 12 -27 8 -7 -4 -9 -3 -5 4 3 5 0 13
-6 15 -10 4 -9 8 2 16 19 14 24 14 63 -3z m177 -96 c0 -22 -66 -45 -88 -31
-11 6 -10 10 4 15 15 6 16 9 5 16 -12 7 -11 11 4 26 11 12 14 19 6 22 -6 2
-16 13 -22 24 -7 13 8 5 40 -22 28 -24 51 -46 51 -50z m-1360 60 c0 -5 -2 -10
-4 -10 -3 0 -8 5 -11 10 -3 6 -1 10 4 10 6 0 11 -4 11 -10z"/>
<path d="M13089 6299 c-21 -21 -23 -60 -3 -66 6 -2 14 5 17 16 7 29 56 39 74
16 12 -18 13 -18 13 2 0 25 -30 53 -58 53 -12 0 -31 -9 -43 -21z"/>
<path d="M13135 6210 c-19 -8 -19 -9 2 -9 12 -1 25 4 28 9 7 12 -2 12 -30 0z"/>
<path d="M13090 6180 c0 -5 5 -10 11 -10 5 0 7 5 4 10 -3 6 -8 10 -11 10 -2 0
-4 -4 -4 -10z"/>
<path d="M9700 5104 c-19 -7 -30 -14 -25 -15 59 -10 71 -8 72 11 2 23 1 23
-47 4z"/>
<path d="M9788 5093 c7 -3 16 -2 19 1 4 3 -2 6 -13 5 -11 0 -14 -3 -6 -6z"/>
<path d="M9140 5104 c0 -7 10 -9 25 -6 36 6 39 18 4 17 -16 0 -29 -5 -29 -11z"/>
<path d="M8060 4582 c0 -8 79 -42 95 -42 6 1 -6 9 -26 19 -51 25 -69 31 -69
23z"/>
<path d="M11578 7839 c-14 -8 -18 -23 -18 -64 0 -48 2 -53 20 -48 28 7 42 37
38 80 -3 40 -14 48 -40 32z"/>
<path d="M13375 7799 c-4 -6 -5 -13 -2 -16 7 -7 27 6 27 18 0 12 -17 12 -25
-2z"/>
<path d="M11393 7747 c-20 -9 -23 -18 -23 -64 0 -57 9 -64 40 -33 13 13 20 33
20 59 0 46 -6 52 -37 38z"/>
<path d="M11190 7645 c-19 -18 -15 -105 4 -105 25 0 46 36 46 78 0 34 -4 42
-18 42 -10 0 -24 -7 -32 -15z"/>
<path d="M11009 7560 c-21 -12 -26 -110 -6 -110 26 0 47 36 47 78 0 43 -9 50
-41 32z"/>
<path d="M13118 7539 c-18 -10 -25 -29 -10 -29 4 0 18 9 32 20 27 21 10 28
-22 9z"/>
<path d="M10825 7466 c-19 -13 -27 -65 -15 -99 6 -18 7 -18 27 0 21 17 27 40
24 91 -1 25 -10 28 -36 8z"/>
<path d="M14150 7423 c0 -5 7 -17 15 -27 14 -19 15 -19 15 7 0 17 -5 27 -15
27 -8 0 -15 -3 -15 -7z"/>
<path d="M11420 7409 c0 -5 5 -7 10 -4 6 3 10 8 10 11 0 2 -4 4 -10 4 -5 0
-10 -5 -10 -11z"/>
<path d="M10624 7368 c-5 -7 -7 -35 -4 -63 l5 -50 28 28 c35 34 36 90 1 95
-11 2 -25 -3 -30 -10z"/>
<path d="M10438 7277 c-15 -15 -12 -107 3 -107 23 0 49 42 49 80 0 33 -3 40
-19 40 -11 0 -26 -6 -33 -13z"/>
<path d="M2055 7230 c4 -6 11 -8 16 -5 14 9 11 15 -7 15 -8 0 -12 -5 -9 -10z"/>
<path d="M12750 7230 c-8 -5 -12 -12 -9 -15 8 -8 39 5 39 16 0 11 -11 11 -30
-1z"/>
<path d="M10258 7189 c-20 -11 -26 -93 -7 -104 21 -14 49 26 49 72 0 45 -9 52
-42 32z"/>
<path d="M2160 7169 c0 -5 5 -7 10 -4 6 3 10 8 10 11 0 2 -4 4 -10 4 -5 0 -10
-5 -10 -11z"/>
<path d="M13655 7111 c-49 -27 -115 -63 -145 -80 -30 -17 -86 -47 -125 -66
-98 -50 -158 -84 -170 -97 -14 -15 45 14 165 80 30 16 100 54 155 84 153 84
215 120 215 124 0 6 1 7 -95 -45z"/>
<path d="M12034 7114 c-18 -14 -18 -15 4 -4 12 6 22 13 22 15 0 8 -5 6 -26
-11z"/>
<path d="M12130 7100 c6 -11 13 -20 16 -20 2 0 0 9 -6 20 -6 11 -13 20 -16 20
-2 0 0 -9 6 -20z"/>
<path d="M10069 7098 c-12 -10 -15 -26 -11 -60 2 -27 8 -48 12 -48 22 0 40 34
40 76 0 46 -12 55 -41 32z"/>
<path d="M12167 7039 c11 -20 28 -47 36 -60 9 -13 13 -29 9 -34 -4 -6 -43 -27
-87 -47 -92 -44 -88 -45 -156 58 -44 69 -65 88 -28 27 54 -89 67 -109 86 -126
18 -16 23 -16 49 -2 16 8 38 12 49 9 15 -4 16 -3 6 4 -11 8 -9 12 10 18 13 4
27 7 32 6 4 -1 7 2 7 6 0 5 11 14 25 20 35 16 32 43 -11 99 -47 62 -52 66 -27
22z"/>
<path d="M12038 7034 c-37 -20 -52 -48 -38 -74 16 -31 52 -34 99 -10 50 25 59
42 37 75 -19 29 -56 32 -98 9z"/>
<path d="M9885 7006 c-17 -11 -20 -23 -17 -60 5 -52 22 -60 47 -22 17 26 17
87 0 93 -6 2 -19 -3 -30 -11z"/>
<path d="M12291 6989 c-1 -26 24 -58 36 -45 3 3 0 6 -8 7 -17 1 20 17 41 18
13 1 13 0 0 -9 -13 -8 -12 -10 4 -10 12 0 16 5 12 16 -3 9 -6 20 -6 25 0 5
-11 8 -25 7 -14 -1 -25 -6 -25 -10 0 -15 -19 -8 -23 10 -3 11 -5 8 -6 -9z"/>
<path d="M12389 6991 c7 -5 10 -14 7 -20 -4 -6 0 -11 9 -11 13 0 14 4 5 20 -6
11 -16 20 -23 20 -8 0 -8 -3 2 -9z"/>
<path d="M9704 6916 c-15 -11 -19 -23 -16 -60 4 -49 11 -55 37 -30 10 10 15
30 13 56 -2 46 -8 52 -34 34z"/>
<path d="M9201 6823 c-54 -55 -65 -154 -31 -289 26 -102 78 -207 132 -266 l43
-48 42 20 c44 21 83 62 83 89 1 11 5 8 15 -9 13 -23 14 -17 14 75 0 264 -85
440 -218 453 -45 4 -53 2 -80 -25z m289 -442 c0 -5 -8 -11 -17 -14 -10 -2 -27
-8 -38 -12 -11 -4 -6 2 10 13 34 23 45 26 45 13z"/>
<path d="M9519 6830 c-22 -13 -26 -110 -5 -110 32 0 56 62 40 104 -7 18 -13
19 -35 6z"/>
<path d="M11688 6643 c7 -3 16 -2 19 1 4 3 -2 6 -13 5 -11 0 -14 -3 -6 -6z"/>
<path d="M11583 6605 c-17 -13 -16 -14 9 -15 30 0 46 15 24 23 -8 3 -22 -1
-33 -8z"/>
<path d="M12555 6546 c-49 -25 -87 -45 -83 -45 10 -1 178 79 178 84 0 7 3 8
-95 -39z"/>
<path d="M12408 6478 c-27 -12 -48 -25 -48 -30 0 -5 23 3 50 17 28 14 50 28
50 30 0 6 2 7 -52 -17z"/>
<path d="M8124 6419 c-4 -7 -3 -9 4 -5 5 3 13 0 15 -6 4 -9 6 -10 6 -1 1 17
-16 25 -25 12z"/>
<path d="M11196 6414 c-5 -14 -4 -15 9 -4 17 14 19 20 6 20 -5 0 -12 -7 -15
-16z"/>
<path d="M12242 6398 c-35 -17 -61 -32 -59 -35 3 -2 36 12 73 31 84 43 73 46
-14 4z"/>
<path d="M11110 6390 c0 -5 7 -7 15 -4 8 4 15 8 15 10 0 2 -7 4 -15 4 -8 0
-15 -4 -15 -10z"/>
<path d="M12120 6340 c-13 -8 -13 -10 2 -10 9 0 20 5 23 10 8 13 -5 13 -25 0z"/>
<path d="M11020 6330 c-11 -7 -7 -10 18 -10 17 0 32 5 32 10 0 13 -30 13 -50
0z"/>
<path d="M8830 6285 c0 -5 5 -17 10 -25 5 -8 10 -10 10 -5 0 6 -5 17 -10 25
-5 8 -10 11 -10 5z"/>
<path d="M11912 6250 c-92 -37 -131 -60 -103 -60 17 0 203 78 216 91 18 18
-21 7 -113 -31z"/>
<path d="M10880 6270 c0 -5 5 -10 10 -10 6 0 10 5 10 10 0 6 -4 10 -10 10 -5
0 -10 -4 -10 -10z"/>
<path d="M8562 6197 c-19 -9 -23 -16 -18 -38 7 -38 63 -159 73 -159 4 0 22 9
39 19 l32 19 -42 86 c-22 47 -45 85 -51 85 -5 0 -21 -5 -33 -12z"/>
<path d="M8740 6009 c-8 -5 -27 -6 -42 -3 -15 3 -29 0 -33 -6 -5 -9 0 -10 16
-6 13 3 18 3 12 0 -7 -3 -13 -13 -13 -22 0 -12 3 -13 12 -4 7 7 19 12 28 12
20 1 54 27 43 33 -5 3 -15 1 -23 -4z"/>
<path d="M8652 5973 c-6 -2 -10 -9 -6 -14 8 -14 21 -11 21 6 0 8 -1 15 -1 14
-1 0 -7 -3 -14 -6z"/>
<path d="M10040 5896 c0 -9 5 -16 10 -16 6 0 10 4 10 9 0 6 -4 13 -10 16 -5 3
-10 -1 -10 -9z"/>
<path d="M2430 5701 c-34 -11 -248 -119 -392 -198 l-117 -64 24 -62 c13 -34
28 -73 33 -87 5 -14 10 -28 11 -32 1 -4 10 -27 20 -50 10 -24 21 -54 25 -68 4
-14 14 -38 21 -55 7 -16 54 -136 103 -265 224 -583 423 -1084 432 -1090 9 -6
302 -45 415 -56 22 -2 57 -6 77 -10 22 -4 43 -2 51 4 7 6 63 29 125 50 101 36
113 38 121 24 11 -22 21 -89 27 -179 l5 -72 -57 -63 c-96 -107 -196 -208 -205
-208 -17 0 -9 27 15 49 14 13 22 29 19 37 -4 10 0 12 11 8 12 -4 21 5 36 37
24 52 40 81 103 177 26 40 47 74 47 77 0 2 -30 2 -67 -1 -41 -3 -101 1 -153
11 -102 19 -282 44 -905 125 -259 34 -589 77 -735 96 -297 39 -486 58 -544 55
-51 -2 -142 -33 -241 -81 -44 -21 -92 -42 -107 -45 -16 -4 -28 -10 -28 -14 0
-7 -15 -2 965 -306 401 -124 734 -230 740 -236 6 -6 -2 -19 -25 -37 -56 -43
-169 -152 -222 -216 l-50 -60 6 -65 c3 -36 7 -77 9 -91 3 -34 51 -47 120 -32
29 6 106 14 172 17 66 3 210 17 319 31 152 19 201 22 206 13 6 -9 19 -6 52 10
29 14 64 21 101 21 31 0 107 7 169 16 111 17 134 19 191 22 16 1 26 6 23 11
-8 13 4 16 163 41 86 14 146 19 150 13 3 -5 25 -15 48 -21 40 -12 67 -32 43
-32 -23 0 70 -78 102 -85 22 -5 27 -9 16 -12 -20 -5 -25 -23 -6 -23 6 0 26
-11 44 -25 18 -14 37 -25 43 -25 21 0 10 -20 -14 -26 -34 -9 -19 -27 16 -20
16 3 41 1 57 -5 24 -9 25 -11 9 -21 -10 -5 -26 -7 -35 -3 -13 5 -14 3 -5 -6
14 -14 143 22 163 46 7 8 9 15 4 15 -5 0 -3 4 5 9 11 7 9 13 -8 30 -11 11 -21
26 -21 31 0 6 -6 10 -14 10 -7 0 -19 14 -26 30 -7 17 -17 30 -22 30 -6 0 -8 7
-4 15 3 9 0 15 -9 15 -17 0 -55 35 -55 50 0 6 8 10 18 10 14 1 13 3 -5 13 -12
7 -22 16 -21 21 0 15 -25 26 -62 27 -22 1 -5 6 45 14 250 41 612 113 920 184
266 61 324 78 331 96 3 8 21 19 39 25 18 6 39 18 47 27 12 15 5 15 -72 9 -59
-5 -80 -4 -70 3 8 6 26 11 40 12 20 1 18 3 -10 9 -19 5 -37 7 -39 4 -2 -2 2
-4 10 -5 8 -1 -2 -6 -21 -12 -19 -5 -85 -12 -147 -14 l-111 -4 -48 50 c-27 28
-55 51 -63 51 -19 0 -129 -38 -164 -57 -25 -13 -43 -13 -130 -3 -549 64 -846
181 -1108 437 -36 35 -67 61 -70 58 -3 -3 -4 9 -1 25 2 18 15 38 31 49 33 23
661 393 839 493 l132 76 -67 16 c-90 23 -161 56 -240 112 -35 25 -75 47 -87
48 -13 2 -90 52 -172 112 -82 59 -315 230 -519 379 -203 149 -441 322 -527
385 -100 73 -157 122 -158 133 0 11 -14 24 -35 33 -37 15 -57 16 -95 5z m-733
-2047 c-3 -3 -12 -4 -19 -1 -8 3 -5 6 6 6 11 1 17 -2 13 -5z m-388 -43 c129
-35 173 -51 144 -51 -21 0 -231 50 -288 68 -113 37 -8 25 144 -17z m438 33
c-3 -3 -12 -4 -19 -1 -8 3 -5 6 6 6 11 1 17 -2 13 -5z m56 -11 c-7 -2 -21 -2
-30 0 -10 3 -4 5 12 5 17 0 24 -2 18 -5z m87 -13 l25 -8 -25 0 c-14 0 -36 4
-50 8 l-25 8 25 0 c14 0 36 -4 50 -8z m63 -17 c-7 -2 -19 -2 -25 0 -7 3 -2 5
12 5 14 0 19 -2 13 -5z m50 -10 c-7 -2 -19 -2 -25 0 -7 3 -2 5 12 5 14 0 19
-2 13 -5z m217 -33 c96 -17 180 -33 185 -35 22 -11 -114 4 -180 19 -38 9 -101
22 -140 30 -128 26 -42 16 135 -14z m233 -47 c-7 -2 -19 -2 -25 0 -7 3 -2 5
12 5 14 0 19 -2 13 -5z m172 -23 c167 -28 268 -51 280 -62 7 -7 2 -9 -15 -6
-14 3 -106 22 -205 41 -99 20 -189 38 -200 40 l-20 5 20 1 c11 0 74 -8 140
-19z m572 -147 c-3 -10 -5 -4 -5 12 0 17 2 24 5 18 2 -7 2 -21 0 -30z m1634
-23 c-14 -8 -170 -5 -178 4 -2 2 29 15 69 29 l73 25 25 -24 c21 -20 22 -26 11
-34z m-1038 -397 c-7 -2 -21 -2 -30 0 -10 3 -4 5 12 5 17 0 24 -2 18 -5z m-60
-10 c-7 -2 -19 -2 -25 0 -7 3 -2 5 12 5 14 0 19 -2 13 -5z"/>
<path d="M9178 5573 c-16 -4 -34 -33 -20 -33 12 0 48 28 42 32 -3 3 -12 3 -22
1z"/>
<path d="M9225 5550 c-3 -5 3 -10 14 -10 12 0 21 5 21 10 0 6 -6 10 -14 10 -8
0 -18 -4 -21 -10z"/>
<path d="M12161 5507 c-73 -37 -89 -181 -37 -340 33 -101 84 -185 145 -240 34
-31 44 -35 55 -25 8 7 26 22 40 32 14 10 26 28 26 39 0 15 3 17 14 8 33 -27
25 251 -9 350 -27 74 -63 126 -112 158 -50 33 -83 38 -122 18z"/>
<path d="M6583 5383 c-19 -7 -17 -103 2 -103 20 0 35 32 35 74 0 35 -8 41 -37
29z"/>
<path d="M11665 5320 c-11 -4 -29 -6 -40 -4 -25 5 -89 -18 -92 -33 -1 -6 4
-16 11 -22 10 -8 32 -2 89 22 43 19 80 37 84 40 9 10 -28 7 -52 -3z"/>
<path d="M6403 5288 c-5 -7 -11 -32 -12 -55 -2 -33 1 -43 13 -43 21 0 36 31
36 74 0 37 -18 48 -37 24z"/>
<path d="M6234 5206 c-15 -11 -19 -23 -16 -60 2 -25 8 -46 12 -46 17 0 40 45
40 77 0 38 -10 47 -36 29z"/>
<path d="M6052 5118 c-17 -17 -16 -98 1 -98 24 0 37 24 37 67 0 44 -14 55 -38
31z"/>
<path d="M5874 5028 c-8 -13 -6 -89 3 -98 11 -11 43 45 43 76 0 27 -4 34 -19
34 -11 0 -23 -5 -27 -12z"/>
<path d="M11786 4980 c10 -40 34 -93 40 -88 2 3 -7 30 -21 59 -13 30 -22 43
-19 29z"/>
<path d="M5709 4950 c-17 -10 -27 -110 -11 -110 21 0 42 39 42 78 0 44 -4 48
-31 32z"/>
<path d="M5533 4863 c-8 -3 -13 -25 -13 -61 l0 -55 25 23 c18 17 25 34 25 62
0 37 -7 43 -37 31z"/>
<path d="M11780 4830 c0 -5 5 -10 10 -10 6 0 10 5 10 10 0 6 -4 10 -10 10 -5
0 -10 -4 -10 -10z"/>
<path d="M5364 4776 c-15 -11 -19 -23 -16 -60 4 -51 18 -56 39 -15 15 28 17
75 5 83 -5 3 -17 -1 -28 -8z"/>
<path d="M5189 4690 c-11 -6 -17 -24 -17 -52 -1 -54 6 -63 29 -42 13 12 19 31
19 61 0 45 -4 49 -31 33z"/>
<path d="M5013 4603 c-15 -5 -18 -103 -5 -103 20 0 42 39 42 73 0 36 -8 42
-37 30z"/>
<path d="M4848 4519 c-13 -7 -18 -23 -18 -59 0 -28 4 -50 9 -50 19 0 41 45 41
82 0 40 -4 44 -32 27z"/>
<path d="M7245 4510 c-3 -5 -1 -10 4 -10 6 0 11 5 11 10 0 6 -2 10 -4 10 -3 0
-8 -4 -11 -10z"/>
<path d="M6865 4441 c-8 -15 3 -31 21 -31 9 0 14 7 12 17 -4 20 -24 28 -33 14z"/>
<path d="M7207 4439 c7 -7 15 -10 18 -7 3 3 -2 9 -12 12 -14 6 -15 5 -6 -5z"/>
<path d="M4673 4428 c-4 -7 -9 -32 -10 -55 -3 -33 0 -43 12 -43 20 0 35 32 35
74 0 37 -20 50 -37 24z"/>
<path d="M7245 4430 c-3 -5 1 -10 9 -10 9 0 16 5 16 10 0 6 -4 10 -9 10 -6 0
-13 -4 -16 -10z"/>
<path d="M7060 4350 c-12 -8 -11 -10 7 -10 12 0 25 5 28 10 8 13 -15 13 -35 0z"/>
<path d="M7044 4318 c-3 -4 11 -8 30 -8 20 0 36 2 36 4 0 8 -61 12 -66 4z"/>
<path d="M6888 4233 c6 -2 18 -2 25 0 6 3 1 5 -13 5 -14 0 -19 -2 -12 -5z"/>
<path d="M7585 4214 c-22 -13 -37 -24 -33 -24 14 0 78 34 78 42 0 10 3 11 -45
-18z"/>
<path d="M6835 4150 c28 -12 45 -12 45 0 0 6 -15 10 -32 9 -28 0 -30 -2 -13
-9z"/>
<path d="M7375 4118 c-33 -17 -61 -34 -63 -39 -2 -5 -13 -9 -25 -9 -12 0 -33
-9 -47 -20 -14 -11 -29 -20 -33 -20 -5 0 -46 -18 -92 -40 -46 -22 -96 -45
-110 -50 -21 -8 -36 -30 -20 -30 9 0 91 44 108 58 9 8 17 12 17 9 0 -4 26 6
58 22 31 16 100 49 152 74 52 24 101 52 109 61 17 21 17 21 -54 -16z"/>
<path d="M7525 4140 c-3 -6 1 -7 9 -4 18 7 21 14 7 14 -6 0 -13 -4 -16 -10z"/>
<path d="M6630 4130 c-20 -12 -5 -24 16 -12 9 5 12 12 7 15 -5 3 -15 2 -23 -3z"/>
<path d="M6763 4122 c-53 -20 -55 -29 -4 -24 28 3 41 9 44 23 3 10 4 19 4 18
-1 0 -21 -8 -44 -17z"/>
<path d="M7496 4123 c-6 -14 -5 -15 5 -6 7 7 10 15 7 18 -3 3 -9 -2 -12 -12z"/>
<path d="M6453 4067 c-21 -23 -21 -23 -2 -35 16 -10 24 -10 39 1 17 12 17 14
2 35 l-17 21 -22 -22z m27 -17 c0 -5 -4 -10 -10 -10 -5 0 -10 5 -10 10 0 6 5
10 10 10 6 0 10 -4 10 -10z"/>
<path d="M4003 4065 c-3 -9 -3 -18 0 -21 9 -9 27 6 27 22 0 19 -19 18 -27 -1z"/>
<path d="M6590 4068 c0 -4 4 -8 9 -8 6 0 12 4 15 8 3 5 -1 9 -9 9 -8 0 -15 -4
-15 -9z"/>
<path d="M6668 4067 c24 -7 36 -7 44 1 9 9 1 12 -32 11 l-45 -1 33 -11z"/>
<path d="M7030 4000 c-9 -6 -10 -10 -3 -10 6 0 15 5 18 10 8 12 4 12 -15 0z"/>
<path d="M6946 3912 c-3 -5 1 -9 9 -9 8 0 12 4 9 9 -3 4 -7 8 -9 8 -2 0 -6 -4
-9 -8z"/>
<path d="M6220 3880 c0 -5 5 -10 10 -10 6 0 10 5 10 10 0 6 -4 10 -10 10 -5 0
-10 -4 -10 -10z"/>
<path d="M6339 3869 c-41 -41 3 -58 47 -18 11 10 25 19 32 19 6 0 14 5 17 10
13 20 -74 11 -96 -11z"/>
<path d="M6895 3880 c3 -5 8 -10 11 -10 2 0 4 5 4 10 0 6 -5 10 -11 10 -5 0
-7 -4 -4 -10z"/>
<path d="M6835 3850 c-39 -26 -26 -26 22 0 21 11 31 20 23 20 -8 0 -28 -9 -45
-20z"/>
<path d="M6160 3851 c0 -5 -8 -12 -17 -14 -14 -4 -13 -5 4 -6 24 -1 39 14 23
24 -5 3 -10 2 -10 -4z"/>
<path d="M6780 3830 c-8 -5 -12 -11 -9 -14 2 -3 11 -1 19 4 8 5 12 11 9 14 -2
3 -11 1 -19 -4z"/>
<path d="M6098 3813 c7 -3 16 -2 19 1 4 3 -2 6 -13 5 -11 0 -14 -3 -6 -6z"/>
<path d="M11195 3810 c-3 -5 -2 -10 4 -10 5 0 13 5 16 10 3 6 2 10 -4 10 -5 0
-13 -4 -16 -10z"/>
<path d="M6283 3796 c-35 -12 -53 -26 -34 -26 7 0 9 -4 6 -10 -8 -13 -3 -13
32 2 15 6 35 10 42 9 13 -2 13 0 1 16 -8 10 -14 19 -15 19 0 1 -14 -4 -32 -10z"/>
<path d="M6735 3800 c-4 -6 -10 -8 -14 -6 -4 3 -26 -6 -50 -20 -24 -13 -49
-24 -56 -24 -8 0 -21 -7 -29 -16 -9 -8 -22 -12 -28 -8 -10 5 -10 4 -2 -5 9 -9
33 -1 104 34 98 48 110 55 92 55 -6 0 -14 -5 -17 -10z"/>
<path d="M4288 3768 c5 -22 -16 -68 -31 -68 -6 0 -25 -11 -43 -25 -18 -14 -35
-25 -38 -25 -3 0 -27 -13 -53 -29 -34 -21 -52 -27 -64 -20 -12 6 -21 4 -30 -7
-11 -13 -10 -20 2 -42 9 -15 23 -26 33 -25 22 1 276 173 283 191 9 22 -14 59
-40 64 -20 4 -23 1 -19 -14z"/>
<path d="M5367 3749 c7 -7 15 -10 18 -7 3 3 -2 9 -12 12 -14 6 -15 5 -6 -5z"/>
<path d="M5423 3733 c-28 -14 -44 -33 -28 -33 15 0 85 34 85 41 0 13 -20 10
-57 -8z"/>
<path d="M5623 3717 c9 -8 17 -19 17 -25 0 -6 9 -18 21 -26 12 -8 18 -19 15
-24 -8 -13 -211 -92 -252 -99 -26 -4 -38 1 -64 26 -33 31 -46 39 -35 21 3 -5
1 -18 -4 -28 -8 -15 -4 -25 25 -53 l35 -34 147 50 c81 27 154 55 162 61 8 6
22 14 30 17 10 4 7 6 -7 6 -31 1 -33 50 -3 58 31 8 18 28 -20 31 -18 2 -45 10
-59 19 -21 12 -22 12 -8 0z m50 -121 c4 -10 0 -12 -15 -8 -15 4 -17 7 -6 13
17 11 15 11 21 -5z"/>
<path d="M6509 3700 c-13 -10 -19 -19 -12 -20 11 0 43 26 43 36 0 8 -8 4 -31
-16z"/>
<path d="M5390 3686 c0 -2 7 -7 16 -10 8 -3 12 -2 9 4 -6 10 -25 14 -25 6z"/>
<path d="M6405 3663 c-63 -34 -60 -32 -52 -39 8 -9 77 24 77 37 0 5 6 9 13 8
25 -3 38 1 32 11 -9 14 -14 13 -70 -17z"/>
<path d="M5438 3658 c6 -6 18 -8 28 -6 14 3 12 5 -9 10 -19 3 -25 2 -19 -4z"/>
<path d="M4557 3623 c16 -21 37 -50 46 -65 16 -26 16 -27 -4 -33 -21 -7 -23
-6 -80 72 -27 36 -34 40 -50 30 -25 -16 -31 -34 -16 -49 7 -7 24 -29 37 -48
13 -19 28 -38 34 -42 17 -11 106 28 106 47 0 14 -82 124 -93 125 -5 0 4 -17
20 -37z"/>
<path d="M5750 3640 c0 -13 18 -22 24 -11 3 5 -1 11 -9 15 -8 3 -15 1 -15 -4z"/>
<path d="M6170 3629 c-36 -11 -114 -36 -175 -54 -60 -19 -122 -37 -137 -41
-16 -3 -25 -10 -22 -15 3 -5 -2 -6 -10 -3 -8 3 -25 -2 -39 -10 -14 -10 -32
-14 -42 -10 -14 6 -16 4 -10 -6 5 -8 4 -11 -3 -7 -14 9 -43 -3 -36 -14 3 -5
-9 -6 -26 -3 -19 4 -30 2 -30 -5 0 -18 31 -25 53 -12 11 7 45 19 76 27 31 8
70 21 86 28 39 19 140 48 170 50 14 0 25 3 25 6 0 3 9 11 21 18 16 10 19 10
13 1 -5 -9 -2 -11 9 -6 9 3 34 11 57 17 24 6 38 15 34 22 -4 6 1 8 15 3 13 -4
21 -2 21 5 0 6 6 10 13 9 6 -1 19 -1 27 0 13 1 13 2 0 11 -18 12 -12 13 -90
-11z"/>
<path d="M6285 3617 c-16 -5 -44 -16 -62 -23 -17 -8 -37 -14 -45 -15 -7 0 -2
-5 12 -10 20 -8 28 -6 42 10 16 21 34 29 23 11 -8 -13 2 -12 45 5 19 7 29 14
22 14 -7 1 -10 6 -7 11 3 6 5 10 3 9 -2 -1 -16 -6 -33 -12z"/>
<path d="M6118 3553 c6 -2 10 -9 6 -14 -7 -11 7 -11 24 0 11 7 10 10 -3 15 -9
3 -22 6 -28 5 -8 0 -8 -2 1 -6z"/>
<path d="M6005 3530 c-3 -6 1 -7 9 -4 18 7 21 14 7 14 -6 0 -13 -4 -16 -10z"/>
<path d="M6046 3519 c2 -4 -6 -10 -18 -12 -22 -4 -22 -4 2 -5 14 -1 36 5 48
12 24 13 24 13 -7 13 -16 0 -28 -4 -25 -8z"/>
<path d="M5960 3485 c-14 -8 -34 -15 -45 -15 -11 0 -29 -8 -40 -16 -19 -15
-19 -15 10 -8 33 7 126 53 110 53 -5 0 -21 -6 -35 -14z"/>
<path d="M5590 3451 c-8 -5 -42 -16 -74 -25 -33 -8 -62 -20 -66 -27 -4 -6 -16
-9 -26 -6 -11 3 -32 0 -49 -7 l-30 -13 40 3 c57 3 114 15 121 25 3 5 10 7 15
3 5 -3 21 2 35 11 14 9 33 13 44 10 10 -3 21 -1 25 5 3 5 -2 10 -12 10 -15 0
-16 2 -3 10 19 12 1 13 -20 1z"/>
<path d="M5828 3433 c7 -3 16 -2 19 1 4 3 -2 6 -13 5 -11 0 -14 -3 -6 -6z"/>
<path d="M5705 3400 c-7 -12 2 -12 30 0 19 8 19 9 -2 9 -12 1 -25 -3 -28 -9z"/>
<path d="M5658 3383 c7 -3 16 -2 19 1 4 3 -2 6 -13 5 -11 0 -14 -3 -6 -6z"/>
<path d="M5315 3360 c3 -5 13 -10 21 -10 17 0 19 -16 2 -23 -10 -4 -10 -6 -1
-6 19 -1 26 18 13 34 -14 17 -45 21 -35 5z"/>
<path d="M5440 3360 c0 -5 5 -10 11 -10 5 0 7 5 4 10 -3 6 -8 10 -11 10 -2 0
-4 -4 -4 -10z"/>
<path d="M5260 3350 c0 -13 11 -13 30 0 12 8 11 10 -7 10 -13 0 -23 -4 -23
-10z"/>
<path d="M4147 2953 c9 -25 43 -80 43 -70 0 11 -39 87 -45 87 -2 0 -1 -8 2
-17z"/>
<path d="M3615 2845 c30 -25 59 -39 51 -26 -4 6 -22 18 -39 27 -30 14 -31 14
-12 -1z"/>
<path d="M4264 2751 c21 -23 26 -26 26 -11 0 5 -10 15 -22 21 -23 12 -23 12
-4 -10z"/>
</g>
</svg>
